<svg width="1238" height="1004" version="1.1" xmlns="http://www.w3.org/2000/svg" desc="Created with imagetracer.js version 1.2.6" ><path fill="rgb(251,251,251)" stroke="rgb(251,251,251)" stroke-width="1" opacity="1" d="M 142.5 231 L 481.5 231 L 482 231.5 L 482 291 L 213 291 L 213 460 L 459.5 460 L 460 460.5 L 460 519 L 213 519 L 213 704 L 481.5 704 L 482 704.5 L 482 764 L 141 764 L 141 232.5 L 142.5 231 Z " /><path fill="rgb(251,251,251)" stroke="rgb(251,251,251)" stroke-width="1" opacity="1" d="M 593.5 231 L 670.5 231 L 672 232.5 L 845.5 520 L 1016 231 L 1092.5 231 L 1093 231.5 L 1093 764 L 1023.5 764 L 1023 763.5 L 1023 334.5 L 1021 335.5 L 866.5 597 L 820.5 597 L 818 594.5 L 661.5 334 L 661 764 L 592.5 764 L 592 763.5 L 592 232.5 L 593.5 231 Z " /><path fill="rgb(0,0,0)" stroke="rgb(0,0,0)" stroke-width="1" opacity="1" d="M 0 0 L 1238 0 L 1238 1004 L 0 1004 L 0 0 Z M 143 231 L 141 233 L 141 764 L 482 764 L 482 705 L 482 704 L 213 704 L 213 519 L 460 519 L 460 461 L 460 460 L 213 460 L 213 291 L 482 291 L 482 232 L 482 231 L 143 231 Z M 594 231 L 592 233 L 592 764 L 593 764 L 661 764 L 662 334 L 818 595 L 821 597 L 867 597 L 1021 336 L 1023 335 L 1023 764 L 1024 764 L 1093 764 L 1093 232 L 1093 231 L 1016 231 L 846 520 L 672 233 L 671 231 L 594 231 Z " /></svg>