<svg version="1.1" id="Layer_1" xmlns="http://www.w3.org/2000/svg" xmlns:xlink="http://www.w3.org/1999/xlink" x="0px" y="0px"
	 width="100%" viewBox="0 0 854 786" enable-background="new 0 0 854 786" xml:space="preserve">
<path fill="#2F528D" opacity="1.000000" stroke="none" 
	d="
M853.000000,787.000000 
	C569.046997,787.000000 285.094025,787.000000 1.070513,787.000000 
	C1.070513,525.090393 1.070513,263.180756 1.070513,1.000000 
	C284.695984,1.000000 568.392090,1.000000 852.544067,1.457953 
	C853.000000,263.610596 853.000000,525.305298 853.000000,787.000000 
M2.999724,229.500000 
	C2.999724,414.875671 2.999724,600.251343 2.999724,785.568542 
	C286.130310,785.568542 568.358826,785.568542 850.652344,785.568542 
	C850.652344,524.618103 850.652344,264.099335 850.652344,3.328218 
	C568.076172,3.328218 285.847687,3.328218 2.999724,3.328218 
	C2.999724,78.603340 2.999724,153.551666 2.999724,229.500000 
z"/>
<path fill="#FFFFFF" opacity="1.000000" stroke="none" 
	d="
M853.500000,787.000000 
	C853.000000,525.305298 853.000000,263.610596 853.000000,1.457953 
	C853.666687,1.333333 854.783630,1.548021 854.908997,2.023972 
	C855.196411,3.114913 855.000000,4.333333 855.000000,5.500000 
	C855.000000,264.500000 855.001709,523.500000 854.958740,782.500000 
	C854.958496,784.000061 854.333374,785.500000 853.500000,787.000000 
z"/>
<path fill="#64B5F4" opacity="1.000000" stroke="none" 
	d="
M2.999724,229.000000 
	C2.999724,153.551666 2.999724,78.603340 2.999724,3.328218 
	C285.847687,3.328218 568.076172,3.328218 850.652344,3.328218 
	C850.652344,264.099335 850.652344,524.618103 850.652344,785.568542 
	C568.358826,785.568542 286.130310,785.568542 2.999724,785.568542 
	C2.999724,600.251343 2.999724,414.875671 2.999724,229.000000 
M672.383850,315.500458 
	C672.383850,409.552612 672.383850,503.604797 672.383850,597.589355 
	C686.137390,597.589355 698.872375,597.589355 711.633911,597.589355 
	C711.633911,450.280121 711.633911,303.385223 711.633911,155.997711 
	C709.635010,155.997711 708.003784,155.997726 706.372559,155.997711 
	C692.540100,155.997681 678.703796,156.179871 664.877563,155.886246 
	C660.746521,155.798508 659.189819,157.359879 657.783142,160.987732 
	C627.979736,237.849640 598.040161,314.658722 568.118652,391.474792 
	C567.433960,393.232483 566.650879,394.951874 565.504761,397.652740 
	C564.348145,394.919647 563.605652,393.273529 562.947510,391.594330 
	C532.930664,314.996826 502.896484,238.406067 472.978455,161.770004 
	C471.360901,157.626633 469.257446,155.788406 464.582031,155.891083 
	C450.922821,156.191040 437.252777,155.986252 423.587036,156.012009 
	C421.838562,156.015305 420.090454,156.212296 418.483521,156.310883 
	C418.483521,303.841400 418.483521,450.731232 418.483521,597.586487 
	C432.318024,597.586487 445.706451,597.586487 460.550751,597.586487 
	C459.428436,469.231873 458.309906,341.305878 457.214661,216.044388 
	C492.406525,307.765137 528.572754,402.025391 564.739014,496.285675 
	C565.306946,496.263947 565.874817,496.242249 566.442749,496.220520 
	C600.809998,400.897583 641.885925,308.078796 672.389709,211.151825 
	C672.389709,245.601395 672.389709,280.050964 672.383850,315.500458 
M133.904388,560.500000 
	C133.904388,572.901245 133.904388,585.302429 133.904388,598.000000 
	C137.032593,598.000000 139.186905,598.000000 141.341202,598.000000 
	C186.999298,598.000000 232.657394,598.000000 278.315491,598.000000 
	C299.978088,598.000000 321.642120,597.868469 343.302094,598.107239 
	C347.809357,598.156982 349.023407,596.776184 348.847290,592.451294 
	C348.528931,584.632385 348.789185,576.791077 348.749573,568.959473 
	C348.703644,559.885071 349.643982,560.817261 340.839508,560.813293 
	C288.182739,560.789612 235.525803,560.748718 182.869431,560.894531 
	C178.325562,560.907104 176.967010,559.699341 176.980484,555.054443 
	C177.138458,500.565125 177.079056,446.075226 177.094681,391.585449 
	C177.095184,389.828094 177.284164,388.070770 177.417435,385.754913 
	C231.549011,385.754913 285.110992,385.754913 339.081421,385.754913 
	C339.081421,375.184784 339.086426,365.207275 339.079620,355.229767 
	C339.075256,348.824615 339.067474,348.812866 332.489685,348.812408 
	C282.832336,348.808868 233.174988,348.811859 183.517639,348.808411 
	C177.090958,348.807953 177.083176,348.796265 177.082870,342.214905 
	C177.080597,294.723816 177.078766,247.232742 177.093445,199.741669 
	C177.093994,197.972229 177.265747,196.202850 177.380737,193.990784 
	C180.011520,193.990784 182.147629,193.990799 184.283737,193.990799 
	C236.773880,193.990784 289.264038,193.991089 341.754181,193.989029 
	C343.253632,193.988983 344.844757,194.265747 346.221405,193.847778 
	C347.196594,193.551697 348.579895,192.309814 348.591125,191.474182 
	C348.746582,179.860245 348.696350,168.243576 348.696350,156.354675 
	C276.866821,156.354675 205.667816,156.354675 133.904282,156.354675 
	C133.904282,290.971771 133.904282,425.235870 133.904388,560.500000 
M473.729706,416.944427 
	C472.322906,416.000488 470.916107,415.056549 469.462769,414.081390 
	C469.462769,416.175293 469.462769,418.146179 469.462769,419.989929 
	C472.658478,419.397461 475.379608,418.893005 478.100739,418.388550 
	C478.088745,418.086609 478.076782,417.784668 478.064819,417.482697 
	C476.878815,417.311707 475.692810,417.140686 473.729706,416.944427 
z"/>
<path fill="#0D48A0" opacity="1.000000" stroke="none" 
	d="
M672.386780,315.000488 
	C672.389709,280.050964 672.389709,245.601395 672.389709,211.151825 
	C641.885925,308.078796 600.809998,400.897583 566.442749,496.220520 
	C565.874817,496.242249 565.306946,496.263947 564.739014,496.285675 
	C528.572754,402.025391 492.406525,307.765137 457.214661,216.044388 
	C458.309906,341.305878 459.428436,469.231873 460.550751,597.586487 
	C445.706451,597.586487 432.318024,597.586487 418.483521,597.586487 
	C418.483521,450.731232 418.483521,303.841400 418.483521,156.310883 
	C420.090454,156.212296 421.838562,156.015305 423.587036,156.012009 
	C437.252777,155.986252 450.922821,156.191040 464.582031,155.891083 
	C469.257446,155.788406 471.360901,157.626633 472.978455,161.770004 
	C502.896484,238.406067 532.930664,314.996826 562.947510,391.594330 
	C563.605652,393.273529 564.348145,394.919647 565.504761,397.652740 
	C566.650879,394.951874 567.433960,393.232483 568.118652,391.474792 
	C598.040161,314.658722 627.979736,237.849640 657.783142,160.987732 
	C659.189819,157.359879 660.746521,155.798508 664.877563,155.886246 
	C678.703796,156.179871 692.540100,155.997681 706.372559,155.997711 
	C708.003784,155.997726 709.635010,155.997711 711.633911,155.997711 
	C711.633911,303.385223 711.633911,450.280121 711.633911,597.589355 
	C698.872375,597.589355 686.137390,597.589355 672.383850,597.589355 
	C672.383850,503.604797 672.383850,409.552612 672.386780,315.000488 
z"/>
<path fill="#0C479F" opacity="1.000000" stroke="none" 
	d="
M133.904327,560.000000 
	C133.904282,425.235870 133.904282,290.971771 133.904282,156.354675 
	C205.667816,156.354675 276.866821,156.354675 348.696350,156.354675 
	C348.696350,168.243576 348.746582,179.860245 348.591125,191.474182 
	C348.579895,192.309814 347.196594,193.551697 346.221405,193.847778 
	C344.844757,194.265747 343.253632,193.988983 341.754181,193.989029 
	C289.264038,193.991089 236.773880,193.990784 184.283737,193.990799 
	C182.147629,193.990799 180.011520,193.990784 177.380737,193.990784 
	C177.265747,196.202850 177.093994,197.972229 177.093445,199.741669 
	C177.078766,247.232742 177.080597,294.723816 177.082870,342.214905 
	C177.083176,348.796265 177.090958,348.807953 183.517639,348.808411 
	C233.174988,348.811859 282.832336,348.808868 332.489685,348.812408 
	C339.067474,348.812866 339.075256,348.824615 339.079620,355.229767 
	C339.086426,365.207275 339.081421,375.184784 339.081421,385.754913 
	C285.110992,385.754913 231.549011,385.754913 177.417435,385.754913 
	C177.284164,388.070770 177.095184,389.828094 177.094681,391.585449 
	C177.079056,446.075226 177.138458,500.565125 176.980484,555.054443 
	C176.967010,559.699341 178.325562,560.907104 182.869431,560.894531 
	C235.525803,560.748718 288.182739,560.789612 340.839508,560.813293 
	C349.643982,560.817261 348.703644,559.885071 348.749573,568.959473 
	C348.789185,576.791077 348.528931,584.632385 348.847290,592.451294 
	C349.023407,596.776184 347.809357,598.156982 343.302094,598.107239 
	C321.642120,597.868469 299.978088,598.000000 278.315491,598.000000 
	C232.657394,598.000000 186.999298,598.000000 141.341202,598.000000 
	C139.186905,598.000000 137.032593,598.000000 133.904388,598.000000 
	C133.904388,585.302429 133.904388,572.901245 133.904327,560.000000 
z"/>
<path fill="#A0A4A9" opacity="1.000000" stroke="none" 
	d="
M474.118256,416.957031 
	C475.692810,417.140686 476.878815,417.311707 478.064819,417.482697 
	C478.076782,417.784668 478.088745,418.086609 478.100739,418.388550 
	C475.379608,418.893005 472.658478,419.397461 469.462769,419.989929 
	C469.462769,418.146179 469.462769,416.175293 469.462769,414.081390 
	C470.916107,415.056549 472.322906,416.000488 474.118256,416.957031 
z"/>
</svg>