<svg version="1.1" id="Layer_1" xmlns="http://www.w3.org/2000/svg" xmlns:xlink="http://www.w3.org/1999/xlink" x="0px" y="0px"
	 width="100%" viewBox="0 0 858 788" enable-background="new 0 0 858 788" xml:space="preserve">
<path fill="#2F528D" opacity="1.000000" stroke="none" 
	d="
M1.000001,419.000000 
	C1.000000,418.555542 1.000000,418.111115 1.221733,417.904968 
	C1.962295,416.191559 2.934305,414.240051 2.935317,412.288055 
	C3.006420,275.192047 2.999984,138.096024 3.000000,1.000000 
	C286.696045,1.000000 570.392090,1.000000 854.544067,1.468657 
	C855.000000,263.830414 855.000000,525.723511 855.000000,787.747437 
	C570.783081,787.747437 287.095428,787.747437 2.999977,787.747437 
	C2.999977,785.548218 2.999977,783.583984 2.999977,781.619690 
	C2.999968,662.475342 3.000679,543.330933 2.993356,424.186584 
	C2.993243,422.358002 2.893955,420.529388 2.840951,418.700806 
	C2.227302,418.800537 1.613652,418.900269 1.000001,419.000000 
M853.000000,179.500000 
	C853.000000,120.768898 853.000000,62.037804 853.000000,3.467092 
	C569.796265,3.467092 287.569092,3.467092 5.413046,3.467092 
	C5.413046,264.472656 5.413046,525.011230 5.413046,785.606323 
	C288.054382,785.606323 570.282837,785.606323 853.000000,785.606323 
	C853.000000,583.642090 853.000000,382.071045 853.000000,179.500000 
z"/>
<path fill="#FFFFFF" opacity="1.000000" stroke="none" 
	d="
M1.000001,419.468658 
	C1.613652,418.900269 2.227302,418.800537 2.840951,418.700806 
	C2.893955,420.529388 2.993243,422.358002 2.993356,424.186584 
	C3.000679,543.330933 2.999968,662.475342 2.999977,781.619690 
	C2.999977,783.583984 2.999977,785.548218 2.999977,787.747437 
	C287.095428,787.747437 570.783081,787.747437 855.000000,787.747437 
	C855.000000,525.723511 855.000000,263.830414 855.000000,1.468657 
	C856.333069,1.000000 857.666077,1.000000 858.999390,1.000000 
	C858.999573,263.609497 858.999573,526.218994 858.999573,788.914246 
	C573.119141,788.914246 287.238220,788.914246 1.000000,788.914246 
	C1.000000,665.979309 1.000000,542.958313 1.000001,419.468658 
z"/>
<path fill="#FFFFFF" opacity="1.000000" stroke="none" 
	d="
M2.500000,1.000000 
	C2.999984,138.096024 3.006420,275.192047 2.935317,412.288055 
	C2.934305,414.240051 1.962295,416.191559 1.221733,417.571655 
	C1.000000,279.831116 0.996811,142.662231 1.041429,5.493366 
	C1.041916,3.995473 1.666667,2.497784 2.500000,1.000000 
z"/>
<path fill="#64B5F4" opacity="1.000000" stroke="none" 
	d="
M853.000000,180.000000 
	C853.000000,382.071045 853.000000,583.642090 853.000000,785.606323 
	C570.282837,785.606323 288.054382,785.606323 5.413046,785.606323 
	C5.413046,525.011230 5.413046,264.472656 5.413046,3.467092 
	C287.569092,3.467092 569.796265,3.467092 853.000000,3.467092 
	C853.000000,62.037804 853.000000,120.768898 853.000000,180.000000 
M458.857025,254.509140 
	C458.857025,240.781525 458.857025,227.053894 458.857025,215.094406 
	C494.377594,307.662354 530.560242,401.955688 566.742859,496.249023 
	C567.324524,496.192780 567.906250,496.136566 568.487915,496.080322 
	C602.819214,400.789551 643.921936,308.025391 674.732788,211.158585 
	C674.732788,339.997772 674.732788,468.836945 674.732788,597.588867 
	C688.166504,597.588867 700.901001,597.588867 713.634766,597.588867 
	C713.634766,450.275635 713.634766,303.377380 713.634766,155.998383 
	C711.471069,155.998383 709.672241,155.998383 707.873474,155.998383 
	C694.374268,155.998367 680.872559,156.145050 667.377502,155.909195 
	C663.313171,155.838165 661.325317,156.962387 659.770203,160.978790 
	C630.005188,237.849350 600.055542,314.648376 570.136414,391.459290 
	C569.442383,393.241028 568.660278,394.988495 567.433167,397.908722 
	C562.651123,385.745880 558.326050,374.777374 554.024475,363.799713 
	C527.656494,296.509552 501.258057,229.231247 475.011322,161.893845 
	C473.297516,157.496964 471.069885,155.759552 466.224060,155.880951 
	C452.733307,156.218964 439.228577,155.988037 425.729431,156.011063 
	C423.968872,156.014069 422.208588,156.188583 420.430328,156.284622 
	C420.430328,303.730957 420.430328,450.624481 420.430328,597.657715 
	C434.206909,597.657715 447.602417,597.657715 460.948334,597.657715 
	C461.204926,596.862183 461.488953,596.393433 461.488525,595.924927 
	C461.381500,482.446228 462.967834,368.954315 458.857025,254.509140 
M282.500000,348.813080 
	C250.002441,348.813080 217.504608,348.747620 185.007690,348.892059 
	C180.718246,348.911133 178.940491,348.148132 178.960541,343.231293 
	C179.156235,295.235748 179.075653,247.239120 179.091232,199.242783 
	C179.091751,197.637299 179.277557,196.031876 179.404663,193.979721 
	C181.980408,193.979721 184.115402,193.979736 186.250381,193.979721 
	C238.746368,193.979706 291.242340,193.979996 343.738342,193.978134 
	C345.238007,193.978073 346.827942,194.255295 348.206635,193.840714 
	C349.181641,193.547501 350.570648,192.312408 350.581757,191.481812 
	C350.737274,179.865021 350.687195,168.245468 350.687195,156.350159 
	C278.865845,156.350159 207.659592,156.350159 136.399979,156.350159 
	C136.399979,303.707611 136.399979,450.716217 136.399979,597.643066 
	C207.974747,597.643066 279.057587,597.643066 350.745880,597.643066 
	C350.745880,587.335510 350.750549,577.376038 350.744202,567.416626 
	C350.739990,560.820740 350.732910,560.809021 344.302216,560.808594 
	C291.139618,560.805237 237.976837,560.750549 184.814682,560.904846 
	C180.197906,560.918274 178.968109,559.597717 178.980789,555.027405 
	C179.131927,500.531952 179.075638,446.035980 179.090775,391.540131 
	C179.091263,389.786377 179.274170,388.032684 179.402328,385.736542 
	C233.563873,385.736542 287.133331,385.736542 340.718140,385.736542 
	C340.718140,373.234863 340.718140,361.319244 340.718140,348.812866 
	C321.409546,348.812866 302.454773,348.812866 282.500000,348.813080 
M470.988525,417.372345 
	C471.156281,418.292023 471.324036,419.211670 471.484680,420.092316 
	C474.577271,419.434784 477.340790,418.847260 480.443970,418.187500 
	C477.026276,416.852722 474.255554,415.770660 471.335815,414.630371 
	C471.302094,414.826538 471.144958,415.740204 470.988525,417.372345 
z"/>
<path fill="#FEFEFF" opacity="1.000000" stroke="none" 
	d="
M458.868744,255.007660 
	C462.967834,368.954315 461.381500,482.446228 461.488525,595.924927 
	C461.488953,596.393433 461.204926,596.862183 460.948334,597.657715 
	C447.602417,597.657715 434.206909,597.657715 420.430328,597.657715 
	C420.430328,450.624481 420.430328,303.730957 420.430328,156.284622 
	C422.208588,156.188583 423.968872,156.014069 425.729431,156.011063 
	C439.228577,155.988037 452.733307,156.218964 466.224060,155.880951 
	C471.069885,155.759552 473.297516,157.496964 475.011322,161.893845 
	C501.258057,229.231247 527.656494,296.509552 554.024475,363.799713 
	C558.326050,374.777374 562.651123,385.745880 567.433167,397.908722 
	C568.660278,394.988495 569.442383,393.241028 570.136414,391.459290 
	C600.055542,314.648376 630.005188,237.849350 659.770203,160.978790 
	C661.325317,156.962387 663.313171,155.838165 667.377502,155.909195 
	C680.872559,156.145050 694.374268,155.998367 707.873474,155.998383 
	C709.672241,155.998383 711.471069,155.998383 713.634766,155.998383 
	C713.634766,303.377380 713.634766,450.275635 713.634766,597.588867 
	C700.901001,597.588867 688.166504,597.588867 674.732788,597.588867 
	C674.732788,468.836945 674.732788,339.997772 674.732788,211.158585 
	C643.921936,308.025391 602.819214,400.789551 568.487915,496.080322 
	C567.906250,496.136566 567.324524,496.192780 566.742859,496.249023 
	C530.560242,401.955688 494.377594,307.662354 458.857025,215.094406 
	C458.857025,227.053894 458.857025,240.781525 458.868744,255.007660 
z"/>
<path fill="#FFFFFF" opacity="1.000000" stroke="none" 
	d="
M283.000000,348.812988 
	C302.454773,348.812866 321.409546,348.812866 340.718140,348.812866 
	C340.718140,361.319244 340.718140,373.234863 340.718140,385.736542 
	C287.133331,385.736542 233.563873,385.736542 179.402328,385.736542 
	C179.274170,388.032684 179.091263,389.786377 179.090775,391.540131 
	C179.075638,446.035980 179.131927,500.531952 178.980789,555.027405 
	C178.968109,559.597717 180.197906,560.918274 184.814682,560.904846 
	C237.976837,560.750549 291.139618,560.805237 344.302216,560.808594 
	C350.732910,560.809021 350.739990,560.820740 350.744202,567.416626 
	C350.750549,577.376038 350.745880,587.335510 350.745880,597.643066 
	C279.057587,597.643066 207.974747,597.643066 136.399979,597.643066 
	C136.399979,450.716217 136.399979,303.707611 136.399979,156.350159 
	C207.659592,156.350159 278.865845,156.350159 350.687195,156.350159 
	C350.687195,168.245468 350.737274,179.865021 350.581757,191.481812 
	C350.570648,192.312408 349.181641,193.547501 348.206635,193.840714 
	C346.827942,194.255295 345.238007,193.978073 343.738342,193.978134 
	C291.242340,193.979996 238.746368,193.979706 186.250381,193.979721 
	C184.115402,193.979736 181.980408,193.979721 179.404663,193.979721 
	C179.277557,196.031876 179.091751,197.637299 179.091232,199.242783 
	C179.075653,247.239120 179.156235,295.235748 178.960541,343.231293 
	C178.940491,348.148132 180.718246,348.911133 185.007690,348.892059 
	C217.504608,348.747620 250.002441,348.813080 283.000000,348.812988 
z"/>
<path fill="#A0A4A9" opacity="1.000000" stroke="none" 
	d="
M470.988159,417.013123 
	C471.144958,415.740204 471.302094,414.826538 471.335815,414.630371 
	C474.255554,415.770660 477.026276,416.852722 480.443970,418.187500 
	C477.340790,418.847260 474.577271,419.434784 471.484680,420.092316 
	C471.324036,419.211670 471.156281,418.292023 470.988159,417.013123 
z"/>
</svg>